<?xml version="1.0" standalone="no"?>
<!DOCTYPE svg PUBLIC "-//W3C//DTD SVG 20010904//EN"
 "http://www.w3.org/TR/2001/REC-SVG-20010904/DTD/svg10.dtd">
<svg version="1.0" xmlns="http://www.w3.org/2000/svg"
 width="1500.000000pt" height="649.000000pt" viewBox="0 0 1500.000000 649.000000"
 preserveAspectRatio="xMidYMid meet">

<g transform="translate(0.000000,649.000000) scale(0.100000,-0.100000)"
fill="#000000" stroke="none">
<path d="M8515 6483 c-1184 -9 -2225 -72 -4225 -253 -1983 -180 -2801 -233
-3952 -256 l-338 -7 0 -1158 0 -1158 38 -10 c20 -6 453 -105 962 -221 2863
-653 4379 -1002 7935 -1824 2698 -624 6051 -1396 6060 -1396 3 0 5 1320 5
2934 l0 2934 -37 6 c-72 12 -641 76 -1063 120 -1999 211 -3700 302 -5385 289z"/>
</g>
</svg>
